<svg width="1363" height="163" viewBox="0 0 1363 163" fill="none" xmlns="http://www.w3.org/2000/svg">
<path d="M0 15C0 6.71573 6.71573 0 15 0H37V163H15C6.71573 163 0 156.284 0 148V15Z" fill="#424242"/>
<rect width="1097" height="163" transform="translate(37)" fill="#F0F0F0"/>
<path d="M101.906 53.9219L94.3945 51.2383V48.0859L104.602 52.375V54.6367L101.906 53.9219ZM94.3945 56.1719L101.918 53.4297L104.602 52.7852V55.0352L94.3945 59.3242V56.1719ZM119.836 46.8555L115.195 61H111.457L117.797 43.9375H120.176L119.836 46.8555ZM123.691 61L119.039 46.8555L118.664 43.9375H121.066L127.441 61H123.691ZM123.48 54.6484V57.4023H114.469V54.6484H123.48ZM134.812 48.3203V50.7109H127.43V48.3203H134.812ZM129.258 45.1914H132.633V57.1797C132.633 57.5469 132.68 57.8281 132.773 58.0234C132.875 58.2188 133.023 58.3555 133.219 58.4336C133.414 58.5039 133.66 58.5391 133.957 58.5391C134.168 58.5391 134.355 58.5312 134.52 58.5156C134.691 58.4922 134.836 58.4688 134.953 58.4453L134.965 60.9297C134.676 61.0234 134.363 61.0977 134.027 61.1523C133.691 61.207 133.32 61.2344 132.914 61.2344C132.172 61.2344 131.523 61.1133 130.969 60.8711C130.422 60.6211 130 60.2227 129.703 59.6758C129.406 59.1289 129.258 58.4102 129.258 57.5195V45.1914ZM140.027 43V61H136.652V43H140.027ZM139.547 54.2148H138.621C138.629 53.332 138.746 52.5195 138.973 51.7773C139.199 51.0273 139.523 50.3789 139.945 49.832C140.367 49.2773 140.871 48.8477 141.457 48.543C142.051 48.2383 142.707 48.0859 143.426 48.0859C144.051 48.0859 144.617 48.1758 145.125 48.3555C145.641 48.5273 146.082 48.8086 146.449 49.1992C146.824 49.582 147.113 50.0859 147.316 50.7109C147.52 51.3359 147.621 52.0938 147.621 52.9844V61H144.223V52.9609C144.223 52.3984 144.141 51.957 143.977 51.6367C143.82 51.3086 143.59 51.0781 143.285 50.9453C142.988 50.8047 142.621 50.7344 142.184 50.7344C141.699 50.7344 141.285 50.8242 140.941 51.0039C140.605 51.1836 140.336 51.4336 140.133 51.7539C139.93 52.0664 139.781 52.4336 139.688 52.8555C139.594 53.2773 139.547 53.7305 139.547 54.2148ZM153.75 43V61H150.363V43H153.75ZM160.102 48.3203V61H156.715V48.3203H160.102ZM156.504 45.0156C156.504 44.5234 156.676 44.1172 157.02 43.7969C157.363 43.4766 157.824 43.3164 158.402 43.3164C158.973 43.3164 159.43 43.4766 159.773 43.7969C160.125 44.1172 160.301 44.5234 160.301 45.0156C160.301 45.5078 160.125 45.9141 159.773 46.2344C159.43 46.5547 158.973 46.7148 158.402 46.7148C157.824 46.7148 157.363 46.5547 157.02 46.2344C156.676 45.9141 156.504 45.5078 156.504 45.0156ZM166.195 51.0273V61H162.82V48.3203H165.984L166.195 51.0273ZM165.703 54.2148H164.789C164.789 53.2773 164.91 52.4336 165.152 51.6836C165.395 50.9258 165.734 50.2812 166.172 49.75C166.609 49.2109 167.129 48.8008 167.73 48.5195C168.34 48.2305 169.02 48.0859 169.77 48.0859C170.363 48.0859 170.906 48.1719 171.398 48.3438C171.891 48.5156 172.312 48.7891 172.664 49.1641C173.023 49.5391 173.297 50.0352 173.484 50.6523C173.68 51.2695 173.777 52.0234 173.777 52.9141V61H170.379V52.9023C170.379 52.3398 170.301 51.9023 170.145 51.5898C169.988 51.2773 169.758 51.0586 169.453 50.9336C169.156 50.8008 168.789 50.7344 168.352 50.7344C167.898 50.7344 167.504 50.8242 167.168 51.0039C166.84 51.1836 166.566 51.4336 166.348 51.7539C166.137 52.0664 165.977 52.4336 165.867 52.8555C165.758 53.2773 165.703 53.7305 165.703 54.2148ZM179.719 42.9883V61H176.344V42.9883H179.719ZM187.711 48.3203L182.203 54.6016L179.25 57.5898L178.02 55.1523L180.363 52.1758L183.656 48.3203H187.711ZM184.207 61L180.457 55.1406L182.789 53.1016L188.098 61H184.207Z" fill="#888888"/>
<path d="M114.117 84.875H122.344V107.164C122.344 109.82 121.789 112.07 120.68 113.914C119.57 115.742 118.016 117.125 116.016 118.062C114.016 119 111.664 119.469 108.961 119.469C106.289 119.469 103.938 119 101.906 118.062C99.8906 117.125 98.3125 115.742 97.1719 113.914C96.0469 112.07 95.4844 109.82 95.4844 107.164V84.875H103.734V107.164C103.734 108.57 103.938 109.719 104.344 110.609C104.75 111.484 105.344 112.125 106.125 112.531C106.906 112.938 107.852 113.141 108.961 113.141C110.086 113.141 111.031 112.938 111.797 112.531C112.562 112.125 113.141 111.484 113.531 110.609C113.922 109.719 114.117 108.57 114.117 107.164V84.875ZM136.266 84.875V119H128.062V84.875H136.266ZM172.523 84.875H180.75V107.164C180.75 109.82 180.195 112.07 179.086 113.914C177.977 115.742 176.422 117.125 174.422 118.062C172.422 119 170.07 119.469 167.367 119.469C164.695 119.469 162.344 119 160.312 118.062C158.297 117.125 156.719 115.742 155.578 113.914C154.453 112.07 153.891 109.82 153.891 107.164V84.875H162.141V107.164C162.141 108.57 162.344 109.719 162.75 110.609C163.156 111.484 163.75 112.125 164.531 112.531C165.312 112.938 166.258 113.141 167.367 113.141C168.492 113.141 169.438 112.938 170.203 112.531C170.969 112.125 171.547 111.484 171.938 110.609C172.328 109.719 172.523 108.57 172.523 107.164V84.875ZM193.078 84.875L198.656 96.2188L204.234 84.875H213.609L204.094 101.797L213.867 119H204.398L198.656 107.445L192.914 119H183.422L193.219 101.797L183.68 84.875H193.078Z" fill="black"/>
<path d="M1134 0H1348C1356.28 0 1363 6.71573 1363 15V148C1363 156.284 1356.28 163 1348 163H1134V0Z" fill="#2684FF"/>
<path d="M1248.5 111.917C1244.51 111.917 1240.55 111.13 1236.86 109.601C1233.17 108.073 1229.82 105.832 1226.99 103.008C1221.29 97.3036 1218.08 89.567 1218.08 81.5C1218.08 73.433 1221.29 65.6964 1226.99 59.9922C1232.7 54.2879 1240.43 51.0833 1248.5 51.0833C1265.23 51.0833 1278.92 63.25 1278.92 78.4583C1278.92 83.2985 1276.99 87.9405 1273.57 91.363C1270.15 94.7856 1265.51 96.7083 1260.67 96.7083H1255.19C1254.28 96.7083 1253.67 97.3167 1253.67 98.2292C1253.67 98.5333 1253.97 98.8375 1253.97 99.1417C1255.19 100.662 1255.8 102.487 1255.8 104.312C1256.1 108.571 1252.76 111.917 1248.5 111.917ZM1248.5 57.1667C1242.05 57.1667 1235.86 59.7303 1231.29 64.2937C1226.73 68.8571 1224.17 75.0464 1224.17 81.5C1224.17 87.9536 1226.73 94.1429 1231.29 98.7063C1235.86 103.27 1242.05 105.833 1248.5 105.833C1249.41 105.833 1250.02 105.225 1250.02 104.312C1250.02 103.704 1249.72 103.4 1249.72 103.096C1248.5 101.575 1247.89 100.054 1247.89 98.2292C1247.89 93.9708 1251.24 90.625 1255.5 90.625H1260.67C1263.89 90.625 1266.99 89.3432 1269.27 87.0615C1271.55 84.7798 1272.83 81.6851 1272.83 78.4583C1272.83 66.5958 1261.88 57.1667 1248.5 57.1667ZM1231.77 75.4167C1234.2 75.4167 1236.33 77.5458 1236.33 79.9792C1236.33 82.4125 1234.2 84.5417 1231.77 84.5417C1229.34 84.5417 1227.21 82.4125 1227.21 79.9792C1227.21 77.5458 1229.34 75.4167 1231.77 75.4167ZM1240.9 63.25C1243.33 63.25 1245.46 65.3792 1245.46 67.8125C1245.46 70.2458 1243.33 72.375 1240.9 72.375C1238.46 72.375 1236.33 70.2458 1236.33 67.8125C1236.33 65.3792 1238.46 63.25 1240.9 63.25ZM1256.1 63.25C1258.54 63.25 1260.67 65.3792 1260.67 67.8125C1260.67 70.2458 1258.54 72.375 1256.1 72.375C1253.67 72.375 1251.54 70.2458 1251.54 67.8125C1251.54 65.3792 1253.67 63.25 1256.1 63.25ZM1265.23 75.4167C1267.66 75.4167 1269.79 77.5458 1269.79 79.9792C1269.79 82.4125 1267.66 84.5417 1265.23 84.5417C1262.8 84.5417 1260.67 82.4125 1260.67 79.9792C1260.67 77.5458 1262.8 75.4167 1265.23 75.4167Z" fill="white"/>
</svg>
